<?xml version="1.0" encoding="UTF-8"?> <svg xmlns="http://www.w3.org/2000/svg" width="65" height="65" viewBox="0 0 65 65" fill="none"><path d="M54.1666 62.8335L53.5419 63.6143C53.8421 63.8545 54.2533 63.9013 54.5998 63.7348C54.9462 63.5682 55.1666 63.2179 55.1666 62.8335H54.1666ZM54.1666 2.16679H55.1666V1.16679L54.1666 1.16679L54.1666 2.16679ZM10.8333 2.16675L10.8333 1.16675L9.83325 1.16675V2.16675H10.8333ZM10.8333 62.8335H9.83325C9.83325 63.2179 10.0536 63.5682 10.4001 63.7348C10.7465 63.9013 11.1578 63.8545 11.4579 63.6143L10.8333 62.8335ZM32.4999 45.5001L33.1246 44.7193C32.7594 44.4271 32.2404 44.4271 31.8752 44.7193L32.4999 45.5001ZM55.1666 62.8335V2.16679H53.1666V62.8335H55.1666ZM9.83325 2.16675V62.8335H11.8333V2.16675H9.83325ZM11.4579 63.6143L33.1246 46.281L31.8752 44.7193L10.2086 62.0526L11.4579 63.6143ZM31.8752 46.281L53.5419 63.6143L54.7913 62.0526L33.1246 44.7193L31.8752 46.281ZM54.1666 1.16679L10.8333 1.16675L10.8333 3.16675L54.1666 3.16679L54.1666 1.16679Z" fill="#181B1F"></path></svg> 