<?xml version="1.0" encoding="UTF-8"?> <svg xmlns="http://www.w3.org/2000/svg" width="65" height="65" viewBox="0 0 65 65" fill="none"><path d="M17.6615 28.036L18.6514 28.1774V28.1774L17.6615 28.036ZM17.6179 28.3409L16.628 28.1994V28.1995L17.6179 28.3409ZM47.3384 28.036L48.3284 27.8946V27.8946L47.3384 28.036ZM47.382 28.3409L46.392 28.4823V28.4823L47.382 28.3409ZM41.1667 54.1667V55.1667C41.719 55.1667 42.1667 54.7189 42.1667 54.1667H41.1667ZM23.8333 54.1667H22.8333C22.8333 54.7189 23.281 55.1667 23.8333 55.1667V54.1667ZM20.6071 39.6626L21.3979 39.0505L20.6071 39.6626ZM44.3928 39.6625L43.602 39.0505L44.3928 39.6625ZM26 63.8333H39V61.8333H26V63.8333ZM16.6715 27.8946L16.628 28.1994L18.6079 28.4823L18.6514 28.1774L16.6715 27.8946ZM32.4999 14.1667C24.5429 14.1667 17.7968 20.0175 16.6715 27.8946L18.6514 28.1774C19.6359 21.2857 25.5382 16.1667 32.4999 16.1667V14.1667ZM48.3284 27.8946C47.2031 20.0176 40.4569 14.1667 32.4999 14.1667V16.1667C39.4616 16.1667 45.3639 21.2857 46.3485 28.1774L48.3284 27.8946ZM48.3719 28.1995L48.3284 27.8946L46.3485 28.1774L46.392 28.4823L48.3719 28.1995ZM45.1836 40.2746C47.728 36.9873 49.0152 32.7023 48.3719 28.1995L46.392 28.4823C46.9553 32.4252 45.8307 36.1711 43.602 39.0505L45.1836 40.2746ZM40.1667 47.239V54.1667H42.1667V47.239H40.1667ZM41.1667 53.1667H23.8333V55.1667H41.1667V53.1667ZM24.8333 54.1667V47.2391H22.8333V54.1667H24.8333ZM16.628 28.1995C15.9847 32.7023 17.2719 36.9874 19.8163 40.2747L21.3979 39.0505C19.1692 36.1711 18.0446 32.4252 18.6079 28.4823L16.628 28.1995ZM24.8333 47.2391C24.8333 44.0769 23.1473 41.3108 21.3979 39.0505L19.8163 40.2747C21.51 42.463 22.8333 44.776 22.8333 47.2391H24.8333ZM43.602 39.0505C41.8526 41.3107 40.1667 44.0768 40.1667 47.239H42.1667C42.1667 44.7758 43.4899 42.4629 45.1836 40.2746L43.602 39.0505ZM31.5 0V8.66667H33.5V0H31.5ZM0 33.5H8.66667V31.5H0V33.5ZM56.3333 33.5H65V31.5H56.3333V33.5ZM13.7071 16.6262L7.20711 10.1262L5.79289 11.5404L12.2929 18.0404L13.7071 16.6262ZM52.7071 18.0404L59.2071 11.5404L57.7929 10.1262L51.2929 16.6262L52.7071 18.0404Z" fill="#181B1F"></path></svg> 