<?xml version="1.0" encoding="UTF-8"?> <svg width="65" height="65" viewBox="0 0 65 65" fill="none"><path d="M17.3334 62.8334H47.6667M32.5001 62.8334V41.1667M32.5001 41.1667C42.073 41.1667 49.8334 33.4063 49.8334 23.8334V6.50008C49.8334 4.10685 47.8933 2.16675 45.5001 2.16675H19.5001C17.1068 2.16675 15.1667 4.10685 15.1667 6.50008V23.8334C15.1667 33.4063 22.9271 41.1667 32.5001 41.1667ZM15.1667 10.8334H10.8334C6.04695 10.8334 2.16675 14.7136 2.16675 19.5001C2.16675 24.2865 6.04695 28.1667 10.8334 28.1667H15.1667M49.8334 10.8334H54.1667C58.9532 10.8334 62.8334 14.7136 62.8334 19.5001C62.8334 24.2865 58.9532 28.1667 54.1667 28.1667H49.8334" stroke="#181B1F" stroke-width="2"></path></svg> 